<?xml version="1.0" encoding="iso-8859-1"?>
<!-- Generator: Adobe Illustrator 18.1.1, SVG Export Plug-In . SVG Version: 6.00 Build 0)  -->
<svg version="1.1" id="Capa_1" xmlns="http://www.w3.org/2000/svg" xmlns:xlink="http://www.w3.org/1999/xlink" x="0px" y="0px"
	 viewBox="0 0 44.876 44.876" style="enable-background:new 0 0 44.876 44.876;" xml:space="preserve">
<g>
	<path style="fill:rgb(0,0,0);" d="M44.466,5.719c-0.263-0.182-0.611-0.213-0.89,0.099c-0.602,0.673-1.202,1.347-1.804,2.02
		c0-1.164,0-2.328,0-3.492c0-0.409-0.341-0.75-0.75-0.75c-5.894,0-11.787,0-17.681,0c-3.787,0-7.574,0-11.361,0
		c-0.409,0-0.75,0.341-0.75,0.75c0,1.458,0,2.915,0,4.373c-0.395-0.917-0.79-1.835-1.185-2.752C9.853,5.52,9.173,5.497,8.867,5.815
		c-2.392,2.488-4.783,4.977-7.174,7.465c-0.227,0.153-0.355,0.422-0.227,0.766c0.861,2.312,1.721,4.623,2.582,6.935
		c-1.31,2.593-2.62,5.185-3.929,7.777c-0.336,0.665,0.07,1.505,0.863,1.505c1,0,2,0,2.999,0c0,3.087,0,6.175,0,9.262
		c0,0.246,0,0.493,0,0.739c0,0.545,0.455,1,1,1c5.894,0,11.787,0,17.682,0c3.752,0,7.506,0,11.259,0
		c0.281,0.05,0.57-0.024,0.783-0.271c0.003-0.003,0.007-0.004,0.01-0.008c0.005-0.006,0.011-0.008,0.016-0.014
		c0.004-0.005,0.008-0.01,0.012-0.015s0.008-0.011,0.013-0.016c1.936-2.42,3.873-4.84,5.81-7.262
		c0.413-0.516,0.825-1.031,1.237-1.547c0.258-0.325,0.553-0.628,0.553-1.074c0-0.956,0-1.911,0-2.867c0-4.89,0-9.778,0-14.668
		c0.47-1.324,0.938-2.648,1.409-3.972c0.354-1,0.71-2.001,1.065-3.001C44.973,6.144,44.764,5.852,44.466,5.719z M42.125,9.693
		c-0.046,0.129-0.092,0.259-0.138,0.388c-0.071,0.201-0.143,0.402-0.214,0.603c-0.081,0.228-0.161,0.456-0.242,0.683
		c-0.164,0.461-0.327,0.923-0.491,1.385c-0.099,0.277-0.197,0.554-0.295,0.832c-0.027,0.077-0.058,0.141-0.083,0.189
		c-1.604,2.006-3.211,4.013-4.816,6.019c0.328-1.096,0.656-2.191,0.984-3.287c0.132-0.441,0.264-0.883,0.396-1.324
		c0.099-0.11,0.197-0.221,0.297-0.332c0.447-0.5,0.895-1.001,1.341-1.502c0.044-0.049,0.088-0.099,0.132-0.148
		c0.056-0.062,0.11-0.124,0.166-0.186c0.871-0.975,1.742-1.951,2.612-2.926C41.89,9.955,42.007,9.824,42.125,9.693z M34.298,19.729
		c-0.006,0.02-0.012,0.039-0.018,0.058c-0.057,0.19-0.113,0.38-0.171,0.57c-0.029-0.002-0.056-0.012-0.086-0.012
		c-0.07,0-0.14,0-0.209,0c-5.825,0-11.648,0-17.472,0c-1.121,0-2.241,0-3.362,0c-0.667,0-1.333,0-2,0c-1.321,0-2.643,0-3.964,0
		c1.321-1.699,2.643-3.398,3.964-5.097c0.569-0.731,1.138-1.463,1.707-2.195c0.01-0.013,0.014-0.027,0.023-0.04
		c5.65,0,11.3,0,16.951,0c2.491,0,4.983,0,7.475,0c-0.105,0.109-0.207,0.221-0.317,0.334c-0.444,0.456-0.893,0.944-1.063,1.515
		C35.27,16.485,34.785,18.106,34.298,19.729z M12.731,11.347c0-2.083,0-4.167,0-6.251c5.644,0,11.287,0,16.932,0
		c3.536,0,7.073,0,10.61,0c0,1.474,0,2.948,0,4.422c-0.544,0.609-1.089,1.219-1.633,1.829c-0.05,0.055-0.099,0.111-0.148,0.166
		c-5.05,0-10.1,0-15.149,0c-3.537,0-7.074,0-10.611,0C12.731,11.458,12.731,11.402,12.731,11.347z M3.055,14.027
		c2.035-2.118,4.069-4.235,6.104-6.352c0.617,1.434,1.235,2.867,1.852,4.301c0.038,0.087,0.075,0.173,0.112,0.26
		c-1.969,2.532-3.938,5.064-5.908,7.596c-0.034-0.091-0.068-0.182-0.102-0.273C4.428,17.715,3.741,15.871,3.055,14.027z
		 M2.604,28.263c0.459-0.908,0.918-1.816,1.377-2.726c0.538-1.063,1.075-2.127,1.613-3.191c5.689,0,11.378,0,17.069,0
		c3.245,0,6.491,0,9.737,0v0.001c-0.997,1.972-1.993,3.944-2.989,5.916c-5.477,0-10.953,0-16.43,0c-0.213,0-0.426,0-0.639,0
		c-0.454,0-0.907,0-1.361,0c-1.667,0-3.333,0-5,0c-0.667,0-1.333,0-2,0C3.522,28.263,3.063,28.263,2.604,28.263z M16.342,39.263
		c-3.453,0-6.907,0-10.361,0c0-3.001,0-6.001,0-9.001c1.667,0,3.333,0,5,0c0.667,0,1.333,0,2,0c1.894,0,3.788,0,5.682,0
		c3.787,0,7.574,0,11.361,0c0.01,0,0.016-0.005,0.025-0.005c0.251,0.018,0.492-0.073,0.684-0.295
		c0.012-0.014,0.021-0.026,0.031-0.04c0.041-0.053,0.09-0.089,0.123-0.155c0.711-1.409,1.424-2.818,2.136-4.228
		c0,1.575,0,3.149,0,4.724c0,0.667,0,1.333,0,2c0,2.333,0,4.667,0,7C27.462,39.263,21.903,39.263,16.342,39.263z M40.356,30.453
		c0,0.1,0,0.201,0,0.302c-0.402,0.503-0.804,1.005-1.206,1.508c-1.358,1.698-2.717,3.397-4.076,5.095
		c0.03-1.698,0.06-3.396,0.09-5.095c0.012-0.667,0.023-1.333,0.035-2c0.044-2.479,0.087-4.958,0.131-7.438
		c1.564-1.955,3.129-3.911,4.693-5.866c0.111-0.139,0.222-0.277,0.333-0.416C40.356,21.18,40.356,25.816,40.356,30.453z"/>
</g>
<g>
</g>
<g>
</g>
<g>
</g>
<g>
</g>
<g>
</g>
<g>
</g>
<g>
</g>
<g>
</g>
<g>
</g>
<g>
</g>
<g>
</g>
<g>
</g>
<g>
</g>
<g>
</g>
<g>
</g>
</svg>
