<svg id="Capa_1" enable-background="new 0 0 512 512" height="512" viewBox="0 0 512 512" width="512" xmlns="http://www.w3.org/2000/svg"><g><path d="m328 323.197h-144c-8.284 0-15 6.716-15 15s6.716 15 15 15h17v17c0 8.284 6.716 15 15 15s15-6.716 15-15v-17h97c8.284 0 15-6.716 15-15s-6.716-15-15-15z"/><path d="m363.532 66.625c-6.71-13.934-21.828-21.918-37.286-19.342-48.065 8.011-95.394 7.516-140.492 0-15.438-2.574-30.569 5.394-37.286 19.342-50.693 7.393-148.468 28.703-148.468 79.577v104c0 2.604.678 5.162 1.966 7.425 16.087 28.24 46.259 36.346 61.016 38.657l54.134 89.601c26.329 47.839 77.106 79.313 134.252 79.313h9.263c57.145 0 107.921-31.473 134.251-79.311l54.135-89.604c14.757-2.311 44.929-10.417 61.016-38.657 1.289-2.262 1.966-4.821 1.966-7.425 0-47.071 0-56.315 0-104 .001-50.873-97.775-72.183-148.467-79.576zm72.848 136.577h-360.759c-4.464-2.388-13.586-7.624-22.726-14.992 23.433-12.444 61.555-22.816 107.109-28.908 7.468 5.206 16.677 7.322 25.751 5.81 45.522-7.587 92.934-7.926 140.492 0 9.005 1.501 18.229-.555 25.761-5.809 45.549 6.092 83.668 16.463 107.099 28.907-9.147 7.373-18.274 12.61-22.727 14.992zm45.62-57v20.638c-24.877-15.732-64.729-28.118-115.015-35.712.023-1.496.015 1.876.015-33.628 33.644 5.368 62.202 13.048 83.292 22.455 23.404 10.438 31.708 20.663 31.708 26.247zm-150.822-69.327c3.096-.517 5.822 1.891 5.822 4.932v48.782c0 3.105-2.786 5.439-5.822 4.932-19.976-3.329-40.066-5.302-60.178-5.965v-46.717c20.112-.662 40.201-2.635 60.178-5.964zm-150.356 0c19.976 3.329 40.066 5.302 60.178 5.965v46.716c-20.112.663-40.201 2.635-60.178 5.965-3.116.52-5.822-1.908-5.822-4.932 0-52.678-.017-48.673.03-49.223.226-2.839 2.861-4.979 5.792-4.491zm-150.822 69.327c0-5.584 8.304-15.808 31.708-26.247 21.09-9.407 49.648-17.087 83.292-22.455 0 40.746-.008 32.132.015 33.628-50.286 7.593-90.138 19.979-115.015 35.711 0-4.089 0-15.326 0-20.637zm0 99.678c0-11.399 0-26.578 0-37.718 9.901 8.575 20.075 15.042 27 19.02v36.986c-8.984-2.805-19.888-8.151-27-18.288zm57-12.678h338v44.821l-16.263 26.918c-9.568-27.575-35.406-45.742-64.254-45.742h-176.966c-28.894 0-54.704 18.22-64.254 45.742l-16.263-26.919zm173.631 201.995h-9.263c-59.596 0-110.588-42.557-121.249-101.191-4.246-23.351 13.705-44.809 37.396-44.809h176.967c23.735 0 41.634 21.501 37.396 44.809-10.659 58.634-61.651 101.191-121.247 101.191zm221.369-189.317c-7.118 10.148-18.019 15.494-27 18.294v-36.994c6.925-3.978 17.099-10.444 27-19.02z"/></g></svg>